,
.   http://www.scenetime.com/signup.php  ---&gt;  Hottest scene tracker on the net !!!
 
Scenetime lucky draw is started , join now and be the winner . offer is limited 

    Join Now   http://www.scenetime.com/signup.php

    seed back for speed


 



...................................NFO:.................................................


[size=5][color=orange]Sinister 2011 DVDRip XViD SeT-CM8[/color][/size]

[color=orange]A horrifying excursion into black magic and white-knuckled terror! A conjure man (Lucien Eisenach) has moved into town with a big bag of tricks and a short temper. 
Unwittingly, Emily (Donna Hamblin) crosses his path and provokes his wrath. As the nightmare of his curse progresses, Emily enlists the aid of her brother (Donny Versiga) to find 
out what's happening and try to reverse the hex before it's too late![/color] 

[url]http://www.imdb.com/title/tt1841835/[/url]

[color=blue]CM8 Doing It Right The First Time[/color] :D

Source:  Own

General
Complete name                    : Sinister.2011.DVDRip.XViD.SeT-CM8.avi
Format                           : AVI
Format/Info                      : Audio Video Interleave
File size                        : 726 MiB
Duration                         : 1h 26mn
Overall bit rate                 : 1 172 Kbps

Video
ID                               : 0
Format                           : MPEG-4 Visual
Format profile                   : Advanced Simple@L5
Format settings, BVOP            : 2
Format settings, QPel            : No
Format settings, GMC             : No warppoints
Format settings, Matrix          : Default (H.263)
Codec ID                         : XVID
Codec ID/Hint                    : XviD
Duration                         : 1h 26mn
Bit rate                         : 968 Kbps
Width                            : 720 pixels
Height                           : 404 pixels
Display aspect ratio             : 16:9
Frame rate                       : 29.970 fps
Color space                      : YUV
Chroma subsampling               : 4:2:0
Bit depth                        : 8 bits
Scan type                        : Progressive
Compression mode                 : Lossy
Bits/(Pixel*Frame)               : 0.111
Stream size                      : 600 MiB (83%)
Writing library                  : XviD 1.2.1 (UTC 2008-12-04)

Audio
ID                               : 1
Format                           : AC-3
Format/Info                      : Audio Coding 3
Mode extension                   : CM (complete main)
Codec ID                         : 2000
Duration                         : 1h 26mn
Bit rate mode                    : Constant
Bit rate                         : 192 Kbps
Channel(s)                       : 2 channels
Channel positions                : Front: L R
Sampling rate                    : 48.0 KHz
Bit depth                        : 16 bits
Compression mode                 : Lossy
Stream size                      : 119 MiB (16%)
Alignment                        : Aligned on interleaves
Interleave, duration             : 33 ms (1.00 video frame)



notes
O.k. First of, there is no denying "this is a B movie" its wierd , creepy but no where near a high budget movie.
i kept the bitrate/size low as for the reasons above and also the quality of the source R1 dvd, So don't expect bluray quality..... it aint going to happen :)
Enjoy ;)


[color=blue]LOOKING FOR ANYTHING YOU WANT TO LOOK AND SOUND BETTER

CM8@hushmail.com[/color]



big shout out to my Homies Mr Hive , Sir Unevano, Super TED, Pinny and Mr Simmo.
Greets to SAiNTS,DTRG,SANTi,BDK, THC,SAFC, SiC, AMIABLE and mSD
 all the other Ledgends out there Past and Present..